<mxfile host="app.diagrams.net" modified="2020-05-15T07:13:20.680Z" agent="5.0 (X11; Linux x86_64) AppleWebKit/537.36 (KHTML, like Gecko) Chrome/81.0.4044.138 Safari/537.36" etag="F-ZkUfi0LvLc54ukgRD0" version="13.1.1" type="github">
  <diagram id="0K_9WHdd9w5-j38LtHeC" name="Page-1">
    <mxGraphModel dx="1566" dy="798" grid="1" gridSize="10" guides="1" tooltips="1" connect="1" arrows="1" fold="1" page="1" pageScale="1" pageWidth="827" pageHeight="1169" math="0" shadow="0">
      <root>
        <mxCell id="0" />
        <mxCell id="1" parent="0" />
        <mxCell id="I8oooO-4rbruKJlkzETs-1" style="edgeStyle=orthogonalEdgeStyle;rounded=0;orthogonalLoop=1;jettySize=auto;html=1;exitX=1;exitY=0.3333333333333333;exitDx=0;exitDy=0;exitPerimeter=0;" edge="1" parent="1" source="ekCZ4kEHHR1P0H_sJTlj-1">
          <mxGeometry relative="1" as="geometry">
            <mxPoint x="390" y="280" as="targetPoint" />
          </mxGeometry>
        </mxCell>
        <mxCell id="ekCZ4kEHHR1P0H_sJTlj-1" value="Actor" style="shape=umlActor;verticalLabelPosition=bottom;labelBackgroundColor=#ffffff;verticalAlign=top;html=1;outlineConnect=0;" parent="1" vertex="1">
          <mxGeometry x="480" y="350" width="30" height="60" as="geometry" />
        </mxCell>
        <mxCell id="ekCZ4kEHHR1P0H_sJTlj-2" value="" style="ellipse;whiteSpace=wrap;html=1;aspect=fixed;" parent="1" vertex="1">
          <mxGeometry x="610" y="190" width="80" height="80" as="geometry" />
        </mxCell>
      </root>
    </mxGraphModel>
  </diagram>
</mxfile>
